<mxfile host="Electron" agent="Mozilla/5.0 (Windows NT 10.0; Win64; x64) AppleWebKit/537.36 (KHTML, like Gecko) draw.io/24.7.17 Chrome/128.0.6613.36 Electron/32.0.1 Safari/537.36" version="24.7.17">
  <diagram id="9oAoSQJrEe6h_1gnZ4DV" name="Pagina-1">
    <mxGraphModel dx="989" dy="611" grid="1" gridSize="10" guides="1" tooltips="1" connect="1" arrows="1" fold="1" page="1" pageScale="1" pageWidth="827" pageHeight="1169" math="1" shadow="0">
      <root>
        <mxCell id="0" />
        <mxCell id="1" parent="0" />
        <mxCell id="DNfmyzXn4Z9ylgc_-Ba2-5" style="edgeStyle=none;curved=1;rounded=0;orthogonalLoop=1;jettySize=auto;html=1;entryX=0;entryY=0.5;entryDx=0;entryDy=0;fontSize=12;startSize=8;endSize=8;" edge="1" parent="1" source="DNfmyzXn4Z9ylgc_-Ba2-1" target="DNfmyzXn4Z9ylgc_-Ba2-2">
          <mxGeometry relative="1" as="geometry" />
        </mxCell>
        <mxCell id="DNfmyzXn4Z9ylgc_-Ba2-7" value="\(u\)" style="edgeLabel;html=1;align=center;verticalAlign=middle;resizable=0;points=[];fontSize=12;" vertex="1" connectable="0" parent="DNfmyzXn4Z9ylgc_-Ba2-5">
          <mxGeometry x="-0.0841" y="2" relative="1" as="geometry">
            <mxPoint as="offset" />
          </mxGeometry>
        </mxCell>
        <mxCell id="DNfmyzXn4Z9ylgc_-Ba2-1" value="\(C(s)\)" style="rounded=0;whiteSpace=wrap;html=1;fillColor=none;fontSize=19;" vertex="1" parent="1">
          <mxGeometry x="270" y="350" width="60" height="60" as="geometry" />
        </mxCell>
        <mxCell id="DNfmyzXn4Z9ylgc_-Ba2-6" style="edgeStyle=none;curved=1;rounded=0;orthogonalLoop=1;jettySize=auto;html=1;entryX=0;entryY=0.5;entryDx=0;entryDy=0;fontSize=12;startSize=8;endSize=8;" edge="1" parent="1" source="DNfmyzXn4Z9ylgc_-Ba2-2" target="DNfmyzXn4Z9ylgc_-Ba2-3">
          <mxGeometry relative="1" as="geometry" />
        </mxCell>
        <mxCell id="DNfmyzXn4Z9ylgc_-Ba2-8" value="\(m\)" style="edgeLabel;html=1;align=center;verticalAlign=middle;resizable=0;points=[];fontSize=12;" vertex="1" connectable="0" parent="DNfmyzXn4Z9ylgc_-Ba2-6">
          <mxGeometry x="-0.0365" y="-1" relative="1" as="geometry">
            <mxPoint as="offset" />
          </mxGeometry>
        </mxCell>
        <mxCell id="DNfmyzXn4Z9ylgc_-Ba2-2" value="\(A(s)\)" style="rounded=0;whiteSpace=wrap;html=1;fillColor=none;fontSize=19;" vertex="1" parent="1">
          <mxGeometry x="390" y="350" width="60" height="60" as="geometry" />
        </mxCell>
        <mxCell id="DNfmyzXn4Z9ylgc_-Ba2-22" style="edgeStyle=none;curved=1;rounded=0;orthogonalLoop=1;jettySize=auto;html=1;entryX=0;entryY=0.5;entryDx=0;entryDy=0;fontSize=12;startSize=8;endSize=8;" edge="1" parent="1" source="DNfmyzXn4Z9ylgc_-Ba2-3" target="DNfmyzXn4Z9ylgc_-Ba2-20">
          <mxGeometry relative="1" as="geometry" />
        </mxCell>
        <mxCell id="DNfmyzXn4Z9ylgc_-Ba2-3" value="\(Q(s)\)" style="rounded=0;whiteSpace=wrap;html=1;fillColor=none;fontSize=19;" vertex="1" parent="1">
          <mxGeometry x="510" y="350" width="60" height="60" as="geometry" />
        </mxCell>
        <mxCell id="DNfmyzXn4Z9ylgc_-Ba2-9" value="" style="endArrow=classic;html=1;rounded=0;fontSize=12;startSize=8;endSize=8;curved=1;" edge="1" parent="1">
          <mxGeometry width="50" height="50" relative="1" as="geometry">
            <mxPoint x="210" y="380" as="sourcePoint" />
            <mxPoint x="270" y="380" as="targetPoint" />
          </mxGeometry>
        </mxCell>
        <mxCell id="DNfmyzXn4Z9ylgc_-Ba2-10" value="\(w\)" style="edgeLabel;html=1;align=center;verticalAlign=middle;resizable=0;points=[];fontSize=12;" vertex="1" connectable="0" parent="DNfmyzXn4Z9ylgc_-Ba2-9">
          <mxGeometry x="-0.1" y="2" relative="1" as="geometry">
            <mxPoint as="offset" />
          </mxGeometry>
        </mxCell>
        <mxCell id="DNfmyzXn4Z9ylgc_-Ba2-13" value="" style="endArrow=classic;html=1;rounded=0;fontSize=12;startSize=8;endSize=8;curved=1;entryX=0.5;entryY=0;entryDx=0;entryDy=0;" edge="1" parent="1">
          <mxGeometry width="50" height="50" relative="1" as="geometry">
            <mxPoint x="620" y="240" as="sourcePoint" />
            <mxPoint x="620" y="290" as="targetPoint" />
          </mxGeometry>
        </mxCell>
        <mxCell id="DNfmyzXn4Z9ylgc_-Ba2-14" value="\(d\)" style="edgeLabel;html=1;align=center;verticalAlign=middle;resizable=0;points=[];fontSize=12;" vertex="1" connectable="0" parent="DNfmyzXn4Z9ylgc_-Ba2-13">
          <mxGeometry x="-0.1086" relative="1" as="geometry">
            <mxPoint as="offset" />
          </mxGeometry>
        </mxCell>
        <mxCell id="DNfmyzXn4Z9ylgc_-Ba2-15" value="controllore" style="text;html=1;align=center;verticalAlign=middle;whiteSpace=wrap;rounded=0;fontSize=16;fontFamily=Times New Roman;" vertex="1" parent="1">
          <mxGeometry x="270" y="410" width="60" height="30" as="geometry" />
        </mxCell>
        <mxCell id="DNfmyzXn4Z9ylgc_-Ba2-16" value="attuatore" style="text;html=1;align=center;verticalAlign=middle;whiteSpace=wrap;rounded=0;fontSize=16;fontFamily=Times New Roman;" vertex="1" parent="1">
          <mxGeometry x="390" y="410" width="60" height="30" as="geometry" />
        </mxCell>
        <mxCell id="DNfmyzXn4Z9ylgc_-Ba2-17" value="processo" style="text;html=1;align=center;verticalAlign=middle;whiteSpace=wrap;rounded=0;fontSize=16;fontFamily=Times New Roman;" vertex="1" parent="1">
          <mxGeometry x="510" y="410" width="60" height="30" as="geometry" />
        </mxCell>
        <mxCell id="DNfmyzXn4Z9ylgc_-Ba2-21" style="edgeStyle=none;curved=1;rounded=0;orthogonalLoop=1;jettySize=auto;html=1;entryX=0.5;entryY=0;entryDx=0;entryDy=0;fontSize=12;startSize=8;endSize=8;" edge="1" parent="1" source="DNfmyzXn4Z9ylgc_-Ba2-18" target="DNfmyzXn4Z9ylgc_-Ba2-20">
          <mxGeometry relative="1" as="geometry" />
        </mxCell>
        <mxCell id="DNfmyzXn4Z9ylgc_-Ba2-18" value="\(H(s)\)" style="rounded=0;whiteSpace=wrap;html=1;fillColor=none;fontSize=19;" vertex="1" parent="1">
          <mxGeometry x="590" y="290" width="60" height="60" as="geometry" />
        </mxCell>
        <mxCell id="DNfmyzXn4Z9ylgc_-Ba2-23" style="edgeStyle=none;curved=1;rounded=0;orthogonalLoop=1;jettySize=auto;html=1;fontSize=12;startSize=8;endSize=8;" edge="1" parent="1" source="DNfmyzXn4Z9ylgc_-Ba2-20">
          <mxGeometry relative="1" as="geometry">
            <mxPoint x="720" y="380" as="targetPoint" />
          </mxGeometry>
        </mxCell>
        <mxCell id="DNfmyzXn4Z9ylgc_-Ba2-24" value="\(y\)" style="edgeLabel;html=1;align=center;verticalAlign=middle;resizable=0;points=[];fontSize=12;" vertex="1" connectable="0" parent="DNfmyzXn4Z9ylgc_-Ba2-23">
          <mxGeometry x="-0.0844" y="-1" relative="1" as="geometry">
            <mxPoint as="offset" />
          </mxGeometry>
        </mxCell>
        <mxCell id="DNfmyzXn4Z9ylgc_-Ba2-20" value="" style="ellipse;whiteSpace=wrap;html=1;aspect=fixed;fillColor=none;" vertex="1" parent="1">
          <mxGeometry x="610" y="370" width="20" height="20" as="geometry" />
        </mxCell>
        <mxCell id="DNfmyzXn4Z9ylgc_-Ba2-25" value="\(+\)" style="text;html=1;align=center;verticalAlign=middle;whiteSpace=wrap;rounded=0;fontSize=16;fontFamily=Times New Roman;" vertex="1" parent="1">
          <mxGeometry x="610" y="350" width="60" height="30" as="geometry" />
        </mxCell>
        <mxCell id="DNfmyzXn4Z9ylgc_-Ba2-26" value="\(+\)" style="text;html=1;align=center;verticalAlign=middle;whiteSpace=wrap;rounded=0;fontSize=16;fontFamily=Times New Roman;" vertex="1" parent="1">
          <mxGeometry x="560" y="350" width="60" height="30" as="geometry" />
        </mxCell>
        <mxCell id="DNfmyzXn4Z9ylgc_-Ba2-29" style="edgeStyle=none;curved=1;rounded=0;orthogonalLoop=1;jettySize=auto;html=1;fontSize=12;startSize=8;endSize=8;strokeColor=#FF05CD;dashed=1;" edge="1" parent="1" source="DNfmyzXn4Z9ylgc_-Ba2-27">
          <mxGeometry relative="1" as="geometry">
            <mxPoint x="710" y="345" as="targetPoint" />
          </mxGeometry>
        </mxCell>
        <mxCell id="DNfmyzXn4Z9ylgc_-Ba2-27" value="" style="rounded=1;whiteSpace=wrap;html=1;fillColor=none;strokeColor=#FF05CD;dashed=1;dashPattern=8 8;" vertex="1" parent="1">
          <mxGeometry x="490" y="250" width="170" height="190" as="geometry" />
        </mxCell>
        <mxCell id="DNfmyzXn4Z9ylgc_-Ba2-30" value="\(P(s)\)" style="text;html=1;align=center;verticalAlign=middle;whiteSpace=wrap;rounded=0;fontSize=16;fontFamily=Times New Roman;fontColor=#FF05CD;" vertex="1" parent="1">
          <mxGeometry x="700" y="330" width="60" height="30" as="geometry" />
        </mxCell>
        <mxCell id="DNfmyzXn4Z9ylgc_-Ba2-31" style="edgeStyle=none;curved=1;rounded=0;orthogonalLoop=1;jettySize=auto;html=1;entryX=0;entryY=0.5;entryDx=0;entryDy=0;fontSize=12;startSize=8;endSize=8;" edge="1" parent="1" source="DNfmyzXn4Z9ylgc_-Ba2-33" target="DNfmyzXn4Z9ylgc_-Ba2-38">
          <mxGeometry relative="1" as="geometry">
            <mxPoint x="400" y="600.0000000000001" as="targetPoint" />
          </mxGeometry>
        </mxCell>
        <mxCell id="DNfmyzXn4Z9ylgc_-Ba2-32" value="\(u\)" style="edgeLabel;html=1;align=center;verticalAlign=middle;resizable=0;points=[];fontSize=12;" vertex="1" connectable="0" parent="DNfmyzXn4Z9ylgc_-Ba2-31">
          <mxGeometry x="-0.0841" y="2" relative="1" as="geometry">
            <mxPoint as="offset" />
          </mxGeometry>
        </mxCell>
        <mxCell id="DNfmyzXn4Z9ylgc_-Ba2-33" value="\(C(s)\)" style="rounded=0;whiteSpace=wrap;html=1;fillColor=none;fontSize=19;" vertex="1" parent="1">
          <mxGeometry x="270" y="570" width="60" height="60" as="geometry" />
        </mxCell>
        <mxCell id="DNfmyzXn4Z9ylgc_-Ba2-37" style="edgeStyle=none;curved=1;rounded=0;orthogonalLoop=1;jettySize=auto;html=1;entryX=0;entryY=0.5;entryDx=0;entryDy=0;fontSize=12;startSize=8;endSize=8;" edge="1" parent="1" source="DNfmyzXn4Z9ylgc_-Ba2-38" target="DNfmyzXn4Z9ylgc_-Ba2-50">
          <mxGeometry relative="1" as="geometry" />
        </mxCell>
        <mxCell id="DNfmyzXn4Z9ylgc_-Ba2-38" value="\(G(s)\)" style="rounded=0;whiteSpace=wrap;html=1;fillColor=none;fontSize=19;" vertex="1" parent="1">
          <mxGeometry x="450" y="570" width="60" height="60" as="geometry" />
        </mxCell>
        <mxCell id="DNfmyzXn4Z9ylgc_-Ba2-39" value="" style="endArrow=classic;html=1;rounded=0;fontSize=12;startSize=8;endSize=8;curved=1;" edge="1" parent="1">
          <mxGeometry width="50" height="50" relative="1" as="geometry">
            <mxPoint x="210" y="600" as="sourcePoint" />
            <mxPoint x="270" y="600" as="targetPoint" />
          </mxGeometry>
        </mxCell>
        <mxCell id="DNfmyzXn4Z9ylgc_-Ba2-40" value="\(w\)" style="edgeLabel;html=1;align=center;verticalAlign=middle;resizable=0;points=[];fontSize=12;" vertex="1" connectable="0" parent="DNfmyzXn4Z9ylgc_-Ba2-39">
          <mxGeometry x="-0.1" y="2" relative="1" as="geometry">
            <mxPoint as="offset" />
          </mxGeometry>
        </mxCell>
        <mxCell id="DNfmyzXn4Z9ylgc_-Ba2-41" value="" style="endArrow=classic;html=1;rounded=0;fontSize=12;startSize=8;endSize=8;curved=1;entryX=0.5;entryY=0;entryDx=0;entryDy=0;" edge="1" parent="1">
          <mxGeometry width="50" height="50" relative="1" as="geometry">
            <mxPoint x="620" y="460" as="sourcePoint" />
            <mxPoint x="620" y="510" as="targetPoint" />
          </mxGeometry>
        </mxCell>
        <mxCell id="DNfmyzXn4Z9ylgc_-Ba2-42" value="\(d\)" style="edgeLabel;html=1;align=center;verticalAlign=middle;resizable=0;points=[];fontSize=12;" vertex="1" connectable="0" parent="DNfmyzXn4Z9ylgc_-Ba2-41">
          <mxGeometry x="-0.1086" relative="1" as="geometry">
            <mxPoint as="offset" />
          </mxGeometry>
        </mxCell>
        <mxCell id="DNfmyzXn4Z9ylgc_-Ba2-46" style="edgeStyle=none;curved=1;rounded=0;orthogonalLoop=1;jettySize=auto;html=1;entryX=0.5;entryY=0;entryDx=0;entryDy=0;fontSize=12;startSize=8;endSize=8;" edge="1" parent="1" source="DNfmyzXn4Z9ylgc_-Ba2-47" target="DNfmyzXn4Z9ylgc_-Ba2-50">
          <mxGeometry relative="1" as="geometry" />
        </mxCell>
        <mxCell id="DNfmyzXn4Z9ylgc_-Ba2-47" value="\(H(s)\)" style="rounded=0;whiteSpace=wrap;html=1;fillColor=none;fontSize=19;" vertex="1" parent="1">
          <mxGeometry x="590" y="510" width="60" height="60" as="geometry" />
        </mxCell>
        <mxCell id="DNfmyzXn4Z9ylgc_-Ba2-48" style="edgeStyle=none;curved=1;rounded=0;orthogonalLoop=1;jettySize=auto;html=1;fontSize=12;startSize=8;endSize=8;" edge="1" parent="1" source="DNfmyzXn4Z9ylgc_-Ba2-50">
          <mxGeometry relative="1" as="geometry">
            <mxPoint x="720" y="600" as="targetPoint" />
          </mxGeometry>
        </mxCell>
        <mxCell id="DNfmyzXn4Z9ylgc_-Ba2-49" value="\(y\)" style="edgeLabel;html=1;align=center;verticalAlign=middle;resizable=0;points=[];fontSize=12;" vertex="1" connectable="0" parent="DNfmyzXn4Z9ylgc_-Ba2-48">
          <mxGeometry x="-0.0844" y="-1" relative="1" as="geometry">
            <mxPoint as="offset" />
          </mxGeometry>
        </mxCell>
        <mxCell id="DNfmyzXn4Z9ylgc_-Ba2-50" value="" style="ellipse;whiteSpace=wrap;html=1;aspect=fixed;fillColor=none;" vertex="1" parent="1">
          <mxGeometry x="610" y="590" width="20" height="20" as="geometry" />
        </mxCell>
        <mxCell id="DNfmyzXn4Z9ylgc_-Ba2-51" value="\(+\)" style="text;html=1;align=center;verticalAlign=middle;whiteSpace=wrap;rounded=0;fontSize=16;fontFamily=Times New Roman;" vertex="1" parent="1">
          <mxGeometry x="610" y="570" width="60" height="30" as="geometry" />
        </mxCell>
        <mxCell id="DNfmyzXn4Z9ylgc_-Ba2-52" value="\(+\)" style="text;html=1;align=center;verticalAlign=middle;whiteSpace=wrap;rounded=0;fontSize=16;fontFamily=Times New Roman;" vertex="1" parent="1">
          <mxGeometry x="560" y="570" width="60" height="30" as="geometry" />
        </mxCell>
      </root>
    </mxGraphModel>
  </diagram>
</mxfile>
